<svg width="40" height="40" viewBox="0 0 40 40" fill="none" xmlns="http://www.w3.org/2000/svg">
<circle cx="20" cy="20" r="20" fill="#F1EBFF"/>
<path d="M29 20C29 24.9706 24.9706 29 20 29M29 20C29 15.0294 24.9706 11 20 11M29 20C29 18.5088 24.9706 17.3 20 17.3C15.0294 17.3 11 18.5088 11 20M29 20C29 21.4912 24.9706 22.7 20 22.7C15.0294 22.7 11 21.4912 11 20M20 29C15.0294 29 11 24.9706 11 20M20 29C21.9882 29 23.6 24.9706 23.6 20C23.6 15.0294 21.9882 11 20 11M20 29C18.0118 29 16.4 24.9706 16.4 20C16.4 15.0294 18.0118 11 20 11M11 20C11 15.0294 15.0294 11 20 11" stroke="#7C00F7" stroke-width="1.7"/>
</svg>
