<svg width="40" height="40" viewBox="0 0 40 40" fill="none" xmlns="http://www.w3.org/2000/svg">
<circle cx="20" cy="20" r="20" fill="#FAEBFF"/>
<g clip-path="url(#clip0_388_431)">
<path d="M19.9921 13.4363C16.3696 13.4404 13.4338 16.3759 13.4297 19.9985C13.4306 20.9185 13.6266 21.8278 14.0052 22.6663C14.1108 22.9027 14.3882 23.0087 14.6245 22.903C14.8608 22.7974 14.9668 22.52 14.861 22.2837C14.5365 21.5656 14.3681 20.7866 14.3673 19.9985C14.3673 16.892 16.8856 14.3737 19.9921 14.3737C23.0986 14.3737 25.6168 16.892 25.6168 19.9985C25.6159 20.7866 25.4476 21.5654 25.123 22.2837C25.0173 22.52 25.1233 22.7973 25.3596 22.903C25.596 23.0087 25.8733 22.9027 25.9791 22.6663C26.3576 21.8278 26.5535 20.9185 26.5543 19.9985C26.5502 16.3759 23.6147 13.4404 19.9921 13.4363Z" fill="#B029A3"/>
<path d="M19.992 10.6238C14.8262 10.612 10.6291 14.79 10.6172 19.9557C10.613 21.849 11.1833 23.6991 12.2529 25.2612C12.393 25.4787 12.683 25.5416 12.9008 25.4013C13.1184 25.2612 13.1811 24.9711 13.041 24.7535C13.0362 24.7463 13.0314 24.739 13.0262 24.732C12.0686 23.3392 11.5555 21.6888 11.5548 19.9985C11.5548 15.3387 15.3322 11.5612 19.992 11.5612C24.6517 11.5612 28.4291 15.3387 28.4291 19.9985C28.4283 21.6888 27.9152 23.3392 26.9574 24.732C26.8054 24.9415 26.8518 25.2347 27.0614 25.3867C27.2709 25.5387 27.564 25.4923 27.716 25.2827C27.7212 25.2757 27.726 25.2686 27.7307 25.2612C30.649 20.9989 29.5595 15.1777 25.2971 12.2594C23.7349 11.1898 21.8851 10.6194 19.992 10.6238Z" fill="#B029A3"/>
<path d="M22.1116 23.087C23.8202 21.9163 24.256 19.5823 23.0854 17.8741C21.9147 16.1656 19.5808 15.7297 17.8724 16.9002C16.164 18.0708 15.728 20.4048 16.8988 22.1132C17.1603 22.4952 17.4905 22.8253 17.8724 23.087C15.7801 23.7959 14.3709 25.7578 14.3672 27.967V28.9046C14.3672 29.1635 14.577 29.3732 14.8359 29.3732H25.1481C25.407 29.3732 25.6168 29.1634 25.6168 28.9046V27.967C25.6133 25.7578 24.204 23.7959 22.1116 23.087ZM17.1797 19.9986C17.1797 18.4453 18.4388 17.1862 19.9921 17.1862C21.5453 17.1862 22.8044 18.4453 22.8044 19.9986C22.8044 21.5518 21.5453 22.811 19.9921 22.811C18.4395 22.8092 17.1814 21.5511 17.1797 19.9986ZM24.6794 28.4358H15.3047V27.9671C15.3073 25.6382 17.1946 23.7511 19.5233 23.7486H20.4608C22.7895 23.7511 24.6768 25.6382 24.6794 27.9671V28.4358Z" fill="#B029A3"/>
</g>
<defs>
<clipPath id="clip0_388_431">
<rect width="20" height="20" fill="white" transform="translate(10 10)"/>
</clipPath>
</defs>
</svg>
