<svg width="40" height="40" viewBox="0 0 40 40" fill="none" xmlns="http://www.w3.org/2000/svg">
<circle cx="20" cy="20" r="20" fill="#F4FFEB"/>
<path fill-rule="evenodd" clip-rule="evenodd" d="M22.6163 13.7209V26.9767C22.6163 27.2656 22.3819 27.5 22.093 27.5H13.7209C13.3972 27.5 13.0867 27.3716 12.8579 27.1421C12.6284 26.9133 12.5 26.6028 12.5 26.2791V13.7209C12.5 13.3972 12.6284 13.0867 12.8579 12.8579C13.0867 12.6284 13.3972 12.5 13.7209 12.5H21.3953C21.7191 12.5 22.0295 12.6284 22.2584 12.8579C22.4879 13.0867 22.6163 13.3972 22.6163 13.7209ZM21.5698 13.7209C21.5698 13.6749 21.5516 13.6302 21.5188 13.5974C21.486 13.5647 21.4414 13.5465 21.3953 13.5465H13.7209C13.6749 13.5465 13.6302 13.5647 13.5974 13.5974C13.5647 13.6302 13.5465 13.6749 13.5465 13.7209V26.2791C13.5465 26.3251 13.5647 26.3698 13.5974 26.4026C13.6302 26.4353 13.6749 26.4535 13.7209 26.4535H21.5698V13.7209Z" fill="#34B029"/>
<path fill-rule="evenodd" clip-rule="evenodd" d="M19.8259 22.4419V26.9768C19.8259 27.2656 19.5915 27.5001 19.3026 27.5001H15.8143C15.5254 27.5001 15.291 27.2656 15.291 26.9768V22.4419C15.291 22.2103 15.3831 21.9891 15.5464 21.8252C15.7103 21.6619 15.9322 21.5698 16.1631 21.5698H18.9538C19.1847 21.5698 19.4066 21.6619 19.5706 21.8252C19.7338 21.9891 19.8259 22.2103 19.8259 22.4419ZM16.3375 22.6163V26.4535H18.7794V22.6163H16.3375Z" fill="#34B029"/>
<path fill-rule="evenodd" clip-rule="evenodd" d="M27.5005 17.907V26.2791C27.5005 26.9537 26.9536 27.5 26.2796 27.5H22.0936C21.8047 27.5 21.5703 27.2656 21.5703 26.9767V17.2093C21.5703 16.9205 21.8047 16.686 22.0936 16.686H26.2796C26.9536 16.686 27.5005 17.2323 27.5005 17.907ZM26.454 17.907C26.454 17.8107 26.3759 17.7325 26.2796 17.7325H22.6168V26.4535H26.2796C26.3759 26.4535 26.454 26.3753 26.454 26.2791V17.907Z" fill="#34B029"/>
<path fill-rule="evenodd" clip-rule="evenodd" d="M14.9414 14.7673H15.9879V15.8138H14.9414V14.7673Z" fill="#34B029"/>
<path fill-rule="evenodd" clip-rule="evenodd" d="M14.9414 17.2092H15.9879V18.2557H14.9414V17.2092Z" fill="#34B029"/>
<path fill-rule="evenodd" clip-rule="evenodd" d="M14.9414 19.6511H15.9879V20.6976H14.9414V19.6511Z" fill="#34B029"/>
<path fill-rule="evenodd" clip-rule="evenodd" d="M17.0352 14.7673H18.0817V15.8138H17.0352V14.7673Z" fill="#34B029"/>
<path fill-rule="evenodd" clip-rule="evenodd" d="M17.0352 17.2092H18.0817V18.2557H17.0352V17.2092Z" fill="#34B029"/>
<path fill-rule="evenodd" clip-rule="evenodd" d="M17.0352 19.6511H18.0817V20.6976H17.0352V19.6511Z" fill="#34B029"/>
<path fill-rule="evenodd" clip-rule="evenodd" d="M19.127 14.7673H20.1735V15.8138H19.127V14.7673Z" fill="#34B029"/>
<path fill-rule="evenodd" clip-rule="evenodd" d="M24.0117 19.1279H25.0582V20.1744H24.0117V19.1279Z" fill="#34B029"/>
<path fill-rule="evenodd" clip-rule="evenodd" d="M24.0117 21.5698H25.0582V22.6163H24.0117V21.5698Z" fill="#34B029"/>
<path fill-rule="evenodd" clip-rule="evenodd" d="M24.0117 24.0117H25.0582V25.0582H24.0117V24.0117Z" fill="#34B029"/>
<path fill-rule="evenodd" clip-rule="evenodd" d="M19.127 17.2092H20.1735V18.2557H19.127V17.2092Z" fill="#34B029"/>
<path fill-rule="evenodd" clip-rule="evenodd" d="M19.127 19.6511H20.1735V20.6976H19.127V19.6511Z" fill="#34B029"/>
</svg>
