<svg width="40" height="40" viewBox="0 0 40 40" fill="none" xmlns="http://www.w3.org/2000/svg">
<circle cx="20" cy="20" r="20" fill="#FFF3EB"/>
<path d="M27.3271 17.9364C27.9855 18.5948 27.9855 19.6622 27.3271 20.3205C26.6688 20.9789 25.6013 20.9789 24.943 20.3205C24.2846 19.6622 24.2846 18.5948 24.943 17.9364C25.6013 17.278 26.6688 17.278 27.3271 17.9364" stroke="#F79400" stroke-width="1.7" stroke-linecap="round" stroke-linejoin="round"/>
<path d="M21.8357 14.927C22.8494 15.9408 22.8494 17.5844 21.8357 18.5981C20.8219 19.6118 19.1783 19.6118 18.1646 18.5981C17.1509 17.5844 17.1509 15.9408 18.1646 14.927C19.1783 13.9133 20.8219 13.9133 21.8357 14.927" stroke="#F79400" stroke-width="1.7" stroke-linecap="round" stroke-linejoin="round"/>
<path d="M15.0576 17.9364C15.7159 18.5948 15.7159 19.6622 15.0576 20.3205C14.3992 20.9789 13.3318 20.9789 12.6735 20.3205C12.0151 19.6622 12.0151 18.5948 12.6735 17.9364C13.3318 17.278 14.3992 17.278 15.0576 17.9364" stroke="#F79400" stroke-width="1.7" stroke-linecap="round" stroke-linejoin="round"/>
<path d="M29.1668 25.8333V24.92C29.1668 23.7692 28.2343 22.8367 27.0835 22.8367H26.416" stroke="#F79400" stroke-width="1.7" stroke-linecap="round" stroke-linejoin="round"/>
<path d="M10.834 25.8333V24.92C10.834 23.7692 11.7665 22.8367 12.9173 22.8367H13.5848" stroke="#F79400" stroke-width="1.7" stroke-linecap="round" stroke-linejoin="round"/>
<path d="M24.4499 25.8334V24.4992C24.4499 22.8884 23.1441 21.5825 21.5333 21.5825H18.4674C16.8566 21.5825 15.5508 22.8884 15.5508 24.4992V25.8334" stroke="#F79400" stroke-width="1.7" stroke-linecap="round" stroke-linejoin="round"/>
</svg>
