<svg width="20" height="20" viewBox="0 0 20 20" fill="none" xmlns="http://www.w3.org/2000/svg">
<path d="M16.667 2.5H6.66699C5.74652 2.5 5.00033 3.24619 5.00033 4.16667V6.66667C5.00033 7.1269 4.62723 7.5 4.16699 7.5C2.78628 7.5 1.66699 8.61929 1.66699 10C1.66699 11.3807 2.78628 12.5 4.16699 12.5C4.62723 12.5 5.00033 12.8731 5.00033 13.3333V15.8333C5.00033 16.7538 5.74652 17.5 6.66699 17.5H8.33366C8.7939 17.5 9.16699 17.1269 9.16699 16.6667C9.16699 15.286 10.2863 14.1667 11.667 14.1667C13.0477 14.1667 14.167 15.286 14.167 16.6667C14.167 17.1269 14.5401 17.5 15.0003 17.5H16.667C17.5875 17.5 18.3337 16.7538 18.3337 15.8333V13.3333C18.3337 12.8731 17.9606 12.5 17.5003 12.5C16.1196 12.5 15.0003 11.3807 15.0003 10C15.0003 8.61929 16.1196 7.5 17.5003 7.5C17.9606 7.5 18.3337 7.1269 18.3337 6.66667V4.16667C18.3337 3.24619 17.5875 2.5 16.667 2.5Z" stroke="#95A1BB" stroke-width="1.5" stroke-linejoin="round"/>
</svg>
