<svg width="24" height="24" viewBox="0 0 24 24" fill="none" xmlns="http://www.w3.org/2000/svg">
<rect x="2" y="3" width="19" height="19" rx="4" stroke="#A0AEC0" stroke-width="1.5"/>
<path d="M10.0046 9.90515C10.0046 9.00795 9.27451 8.27783 8.37731 8.27783C7.48012 8.27783 6.75 9.00795 6.75 9.90515C6.75 10.8023 7.48012 11.5325 8.37731 11.5325C9.27451 11.5325 10.0046 10.8023 10.0046 9.90515ZM8.37731 10.4476C8.07843 10.4476 7.83488 10.2046 7.83488 9.90515C7.83488 9.60572 8.07843 9.36271 8.37731 9.36271C8.6762 9.36271 8.91975 9.60626 8.91975 9.90515C8.91975 10.204 8.6762 10.4476 8.37731 10.4476Z" fill="#A0AEC0"/>
<path d="M14.8871 8.27783C13.9899 8.27783 13.2598 9.00795 13.2598 9.90515C13.2598 10.8023 13.9899 11.5325 14.8871 11.5325C15.7843 11.5325 16.5144 10.8023 16.5144 9.90515C16.5144 9.00795 15.7843 8.27783 14.8871 8.27783ZM14.8871 10.4476C14.5882 10.4476 14.3446 10.2046 14.3446 9.90515C14.3446 9.60572 14.5882 9.36271 14.8871 9.36271C15.186 9.36271 15.4295 9.60626 15.4295 9.90515C15.4295 10.204 15.186 10.4476 14.8871 10.4476Z" fill="#A0AEC0"/>
<path d="M14.0964 14.7385C12.5695 15.5234 10.6948 15.5234 9.16785 14.7385C8.90097 14.6012 8.57442 14.7065 8.43719 14.9733C8.29995 15.2402 8.40518 15.5668 8.67206 15.704C9.57739 16.1689 10.601 16.4151 11.6321 16.4151C12.6633 16.4151 13.6869 16.1694 14.5922 15.704C14.8586 15.5668 14.9638 15.2402 14.8271 14.9733C14.6904 14.7065 14.3633 14.6012 14.0964 14.7385Z" fill="#A0AEC0"/>
</svg>
